<svg xmlns="http://www.w3.org/2000/svg" version="1.1" xmlns:xlink="http://www.w3.org/1999/xlink" xmlns:svgjs="http://svgjs.dev/svgjs" width="512" height="512"><svg id="SvgjsSvg1129" xmlns="http://www.w3.org/2000/svg" version="1.1" viewBox="0 0 512 512">
  <!-- Generator: Adobe Illustrator 29.0.0, SVG Export Plug-In . SVG Version: 2.1.0 Build 186)  -->
  <defs>
    <style>
      .st0 {
        stroke-miterlimit: 11.2;
        stroke-width: 6.02px;
      }

      .st0, .st1 {
        fill: none;
        stroke: #fff;
      }

      .st2 {
        fill: #239f40;
      }

      .st3 {
        fill: #fff;
      }

      .st1 {
        stroke-miterlimit: 5.6;
        stroke-width: 3.01px;
      }

      .st4 {
        fill: #da0000;
      }

      .st5 {
        display: none;
      }
    </style>
  </defs>
  <g class="st5">
    <g id="SvgjsG1128">
      <path class="st4" d="M172.52,273.21c21.56,7,44.71-4.79,51.72-26.35,5.11-15.74.28-33-12.26-43.79,13.92,20.59,8.5,48.57-12.09,62.48-8.05,5.44-17.65,8.13-27.36,7.66"></path>
      <path class="st4" d="M225.01,265.34c16.44-9.5,22.06-30.53,12.56-46.97-4.66-8.06-12.38-13.88-21.41-16.15,19.86,14.93,23.86,43.15,8.93,63.01-.03.03-.05.07-.08.1"></path>
      <path class="st4" d="M197.19,280.57l-2.25-45,2.25-35.43c1.37,1.91,3.19,3.44,5.31,4.46v26.45l-1.81,44.7-3.5,4.82Z"></path>
      <path class="st4" d="M196.29,197.32l.9.85c2.06,2.93,6.11,3.64,9.05,1.58,2.46-1.73,3.41-4.92,2.3-7.72-.63,3.33-3.84,5.52-7.17,4.89-1.75-.33-3.28-1.41-4.17-2.95"></path>
    </g>
    <g id="SvgjsG1127" data-name="emblem_half">
      <path class="st4" d="M221.86,273.21c-21.56,7-44.71-4.79-51.72-26.35-5.11-15.74-.28-33,12.26-43.79-13.92,20.59-8.5,48.57,12.09,62.48,8.05,5.44,17.65,8.13,27.36,7.66"></path>
      <path class="st4" d="M169.36,265.34c-16.44-9.5-22.06-30.53-12.56-46.97,4.66-8.06,12.38-13.88,21.41-16.15-19.86,14.93-23.86,43.15-8.93,63.01.03.03.05.07.08.1"></path>
      <path class="st4" d="M197.19,280.57l2.25-45-2.25-35.43c-1.37,1.91-3.19,3.44-5.31,4.46v26.45l1.81,44.7,3.5,4.82Z"></path>
      <path class="st4" d="M198.09,197.32l-.9.85c-2.06,2.93-6.11,3.64-9.05,1.58-2.46-1.73-3.41-4.92-2.3-7.72.63,3.33,3.84,5.52,7.17,4.89,1.75-.33,3.28-1.41,4.17-2.95"></path>
    </g>
  </g>
  <g>
    <rect class="st4" width="512" height="512"></rect>
    <rect class="st3" width="512" height="341.33"></rect>
    <rect class="st2" width="512" height="170.67"></rect>
    <g>
      <g id="SvgjsG1126">
        <g id="SvgjsG1125">
          <path id="SvgjsPath1124" class="st1" d="M6.83,144.78h29.58M7.96,162.7v-9.96h9.1v7.96h9.1v-7.96h-5.69M11.38,160.71h2.28M36.41,160.71h-5.69v-7.96h9.1M39.82,142.79v17.92h9.1v-17.92M44.37,142.79v17.92"></path>
          <path id="SvgjsPath1123" class="st0" d="M6.83,170.67h20.48M29.58,170.67h20.48"></path>
          <path id="SvgjsPath1122" data-name="tbp2" class="st0" d="M6.83,341.33h20.48M29.58,341.33h20.48"></path>
          <path id="SvgjsPath1121" data-name="tbp1" class="st1" d="M6.83,351.29h29.58M7.96,369.21v-9.96h9.1v7.96h9.1v-7.96h-5.69M11.38,367.22h2.28M36.41,367.22h-5.69v-7.96h9.1M39.82,349.3v17.92h9.1v-17.92M44.37,349.3v17.92"></path>
        </g>
        <g id="SvgjsG1120">
          <g id="SvgjsG1119" data-name="tb1">
            <path id="SvgjsPath1118" data-name="tbp1" class="st1" d="M52.34,144.78h29.58M53.48,162.7v-9.96h9.1v7.96h9.1v-7.96h-5.69M56.89,160.71h2.28M81.92,160.71h-5.69v-7.96h9.1M85.33,142.79v17.92h9.1v-17.92M89.88,142.79v17.92"></path>
            <path id="SvgjsPath1117" data-name="tbp2" class="st0" d="M52.34,170.67h20.48M75.09,170.67h20.48"></path>
            <path id="SvgjsPath1116" data-name="tbp2" class="st0" d="M52.34,341.33h20.48M75.09,341.33h20.48"></path>
            <path id="SvgjsPath1115" data-name="tbp1" class="st1" d="M52.34,351.29h29.58M53.48,369.21v-9.96h9.1v7.96h9.1v-7.96h-5.69M56.89,367.22h2.28M81.92,367.22h-5.69v-7.96h9.1M85.33,349.3v17.92h9.1v-17.92M89.88,349.3v17.92"></path>
          </g>
          <g id="SvgjsG1114" data-name="tb1">
            <path id="SvgjsPath1113" data-name="tbp1" class="st1" d="M97.85,144.78h29.58M98.99,162.7v-9.96h9.1v7.96h9.1v-7.96h-5.69M102.4,160.71h2.28M127.43,160.71h-5.69v-7.96h9.1M130.84,142.79v17.92h9.1v-17.92M135.4,142.79v17.92"></path>
            <path id="SvgjsPath1112" data-name="tbp2" class="st0" d="M97.85,170.67h20.48M120.6,170.67h20.48"></path>
            <path id="SvgjsPath1111" data-name="tbp2" class="st0" d="M97.85,341.33h20.48M120.6,341.33h20.48"></path>
            <path id="SvgjsPath1110" data-name="tbp1" class="st1" d="M97.85,351.29h29.58M98.99,369.21v-9.96h9.1v7.96h9.1v-7.96h-5.69M102.4,367.22h2.28M127.43,367.22h-5.69v-7.96h9.1M130.84,349.3v17.92h9.1v-17.92M135.4,349.3v17.92"></path>
          </g>
          <g id="SvgjsG1109" data-name="tb1">
            <path id="SvgjsPath1108" data-name="tbp1" class="st1" d="M143.36,144.78h29.58M144.5,162.7v-9.96h9.1v7.96h9.1v-7.96h-5.69M147.91,160.71h2.28M172.94,160.71h-5.69v-7.96h9.1M176.36,142.79v17.92h9.1v-17.92M180.91,142.79v17.92"></path>
            <path id="SvgjsPath1107" data-name="tbp2" class="st0" d="M143.36,170.67h20.48M166.12,170.67h20.48"></path>
            <path id="SvgjsPath1106" data-name="tbp2" class="st0" d="M143.36,341.33h20.48M166.12,341.33h20.48"></path>
            <path id="SvgjsPath1105" data-name="tbp1" class="st1" d="M143.36,351.29h29.58M144.5,369.21v-9.96h9.1v7.96h9.1v-7.96h-5.69M147.91,367.22h2.28M172.94,367.22h-5.69v-7.96h9.1M176.36,349.3v17.92h9.1v-17.92M180.91,349.3v17.92"></path>
          </g>
        </g>
      </g>
      <g id="SvgjsG1104" data-name="tb3">
        <g id="SvgjsG1103" data-name="tb1">
          <path id="SvgjsPath1102" data-name="tbp1" class="st1" d="M188.87,144.78h29.58M190.01,162.7v-9.96h9.1v7.96h9.1v-7.96h-5.69M193.42,160.71h2.28M218.45,160.71h-5.69v-7.96h9.1M221.87,142.79v17.92h9.1v-17.92M226.42,142.79v17.92"></path>
          <path id="SvgjsPath1101" data-name="tbp2" class="st0" d="M188.87,170.67h20.48M211.63,170.67h20.48"></path>
          <path id="SvgjsPath1100" data-name="tbp2" class="st0" d="M188.87,341.33h20.48M211.63,341.33h20.48"></path>
          <path id="SvgjsPath1099" data-name="tbp1" class="st1" d="M188.87,351.29h29.58M190.01,369.21v-9.96h9.1v7.96h9.1v-7.96h-5.69M193.42,367.22h2.28M218.45,367.22h-5.69v-7.96h9.1M221.87,349.3v17.92h9.1v-17.92M226.42,349.3v17.92"></path>
        </g>
        <g id="SvgjsG1098" data-name="tb1">
          <path id="SvgjsPath1097" data-name="tbp1" class="st1" d="M234.38,144.78h29.58M235.52,162.7v-9.96h9.1v7.96h9.1v-7.96h-5.69M238.93,160.71h2.28M263.96,160.71h-5.69v-7.96h9.1M267.38,142.79v17.92h9.1v-17.92M271.93,142.79v17.92"></path>
          <path id="SvgjsPath1096" data-name="tbp2" class="st0" d="M234.38,170.67h20.48M257.14,170.67h20.48"></path>
          <path id="SvgjsPath1095" data-name="tbp2" class="st0" d="M234.38,341.33h20.48M257.14,341.33h20.48"></path>
          <path id="SvgjsPath1094" data-name="tbp1" class="st1" d="M234.38,351.29h29.58M235.52,369.21v-9.96h9.1v7.96h9.1v-7.96h-5.69M238.93,367.22h2.28M263.96,367.22h-5.69v-7.96h9.1M267.38,349.3v17.92h9.1v-17.92M271.93,349.3v17.92"></path>
        </g>
        <g id="SvgjsG1093" data-name="tb1">
          <path id="SvgjsPath1092" data-name="tbp1" class="st1" d="M279.89,144.78h29.58M281.03,162.7v-9.96h9.1v7.96h9.1v-7.96h-5.69M284.44,160.71h2.28M309.48,160.71h-5.69v-7.96h9.1M312.89,142.79v17.92h9.1v-17.92M317.44,142.79v17.92"></path>
          <path id="SvgjsPath1091" data-name="tbp2" class="st0" d="M279.89,170.67h20.48M302.65,170.67h20.48"></path>
          <path id="SvgjsPath1090" data-name="tbp2" class="st0" d="M279.89,341.33h20.48M302.65,341.33h20.48"></path>
          <path id="SvgjsPath1089" data-name="tbp1" class="st1" d="M279.89,351.29h29.58M281.03,369.21v-9.96h9.1v7.96h9.1v-7.96h-5.69M284.44,367.22h2.28M309.48,367.22h-5.69v-7.96h9.1M312.89,349.3v17.92h9.1v-17.92M317.44,349.3v17.92"></path>
        </g>
      </g>
      <g id="SvgjsG1088" data-name="tb4">
        <g id="SvgjsG1087" data-name="tb1">
          <path id="SvgjsPath1086" data-name="tbp1" class="st1" d="M325.4,144.78h29.58M326.54,162.7v-9.96h9.1v7.96h9.1v-7.96h-5.69M329.96,160.71h2.28M354.99,160.71h-5.69v-7.96h9.1M358.4,142.79v17.92h9.1v-17.92M362.95,142.79v17.92"></path>
          <path id="SvgjsPath1085" data-name="tbp2" class="st0" d="M325.4,170.67h20.48M348.16,170.67h20.48"></path>
          <path id="SvgjsPath1084" data-name="tbp2" class="st0" d="M325.4,341.33h20.48M348.16,341.33h20.48"></path>
          <path id="SvgjsPath1083" data-name="tbp1" class="st1" d="M325.4,351.29h29.58M326.54,369.21v-9.96h9.1v7.96h9.1v-7.96h-5.69M329.96,367.22h2.28M354.99,367.22h-5.69v-7.96h9.1M358.4,349.3v17.92h9.1v-17.92M362.95,349.3v17.92"></path>
        </g>
        <g id="SvgjsG1082" data-name="tb3">
          <g id="SvgjsG1081" data-name="tb1">
            <path id="SvgjsPath1080" data-name="tbp1" class="st1" d="M370.92,144.78h29.58M372.05,162.7v-9.96h9.1v7.96h9.1v-7.96h-5.69M375.47,160.71h2.28M400.5,160.71h-5.69v-7.96h9.1M403.91,142.79v17.92h9.1v-17.92M408.46,142.79v17.92"></path>
            <path id="SvgjsPath1079" data-name="tbp2" class="st0" d="M370.92,170.67h20.48M393.67,170.67h20.48"></path>
            <path id="SvgjsPath1078" data-name="tbp2" class="st0" d="M370.92,341.33h20.48M393.67,341.33h20.48"></path>
            <path id="SvgjsPath1077" data-name="tbp1" class="st1" d="M370.92,351.29h29.58M372.05,369.21v-9.96h9.1v7.96h9.1v-7.96h-5.69M375.47,367.22h2.28M400.5,367.22h-5.69v-7.96h9.1M403.91,349.3v17.92h9.1v-17.92M408.46,349.3v17.92"></path>
          </g>
          <g id="SvgjsG1076" data-name="tb1">
            <path id="SvgjsPath1075" data-name="tbp1" class="st1" d="M416.43,144.78h29.58M417.56,162.7v-9.96h9.1v7.96h9.1v-7.96h-5.69M420.98,160.71h2.28M446.01,160.71h-5.69v-7.96h9.1M449.42,142.79v17.92h9.1v-17.92M453.97,142.79v17.92"></path>
            <path id="SvgjsPath1074" data-name="tbp2" class="st0" d="M416.43,170.67h20.48M439.18,170.67h20.48"></path>
            <path id="SvgjsPath1073" data-name="tbp2" class="st0" d="M416.43,341.33h20.48M439.18,341.33h20.48"></path>
            <path id="SvgjsPath1072" data-name="tbp1" class="st1" d="M416.43,351.29h29.58M417.56,369.21v-9.96h9.1v7.96h9.1v-7.96h-5.69M420.98,367.22h2.28M446.01,367.22h-5.69v-7.96h9.1M449.42,349.3v17.92h9.1v-17.92M453.97,349.3v17.92"></path>
          </g>
          <g id="SvgjsG1071" data-name="tb1">
            <path id="SvgjsPath1070" data-name="tbp1" class="st1" d="M461.94,144.78h29.58M463.08,162.7v-9.96h9.1v7.96h9.1v-7.96h-5.69M466.49,160.71h2.28M491.52,160.71h-5.69v-7.96h9.1M494.93,142.79v17.92h9.1v-17.92M499.48,142.79v17.92"></path>
            <path id="SvgjsPath1069" data-name="tbp2" class="st0" d="M461.94,170.67h20.48M484.69,170.67h20.48"></path>
            <path id="SvgjsPath1068" data-name="tbp2" class="st0" d="M461.94,341.33h20.48M484.69,341.33h20.48"></path>
            <path id="SvgjsPath1067" data-name="tbp1" class="st1" d="M461.94,351.29h29.58M463.08,369.21v-9.96h9.1v7.96h9.1v-7.96h-5.69M466.49,367.22h2.28M491.52,367.22h-5.69v-7.96h9.1M494.93,349.3v17.92h9.1v-17.92M499.48,349.3v17.92"></path>
          </g>
        </g>
      </g>
    </g>
  </g>
  <g class="st5">
    <g id="SvgjsG1066" data-name="emblem_half">
      <path class="st4" d="M215.52,311.37c21.56,7,44.71-4.79,51.72-26.35,5.11-15.74.28-33-12.26-43.79,13.92,20.59,8.5,48.57-12.09,62.48-8.05,5.44-17.65,8.13-27.36,7.66"></path>
      <path class="st4" d="M268.01,303.5c16.44-9.5,22.06-30.53,12.56-46.97-4.66-8.06-12.38-13.88-21.41-16.15,19.86,14.93,23.86,43.15,8.93,63.01-.03.03-.05.07-.08.1"></path>
      <path class="st4" d="M240.19,318.74l-2.25-45,2.25-35.43c1.37,1.91,3.19,3.44,5.31,4.46v26.45l-1.81,44.7-3.5,4.82Z"></path>
      <path class="st4" d="M239.29,235.49l.9.85c2.06,2.93,6.11,3.64,9.05,1.58,2.46-1.73,3.41-4.92,2.3-7.72-.63,3.33-3.84,5.52-7.17,4.89-1.75-.33-3.28-1.41-4.17-2.95"></path>
    </g>
    <g id="SvgjsG1065" data-name="emblem_half">
      <path class="st4" d="M264.86,311.37c-21.56,7-44.71-4.79-51.72-26.35-5.11-15.74-.28-33,12.26-43.79-13.92,20.59-8.5,48.57,12.09,62.48,8.05,5.44,17.65,8.13,27.36,7.66"></path>
      <path class="st4" d="M212.36,303.5c-16.44-9.5-22.06-30.53-12.56-46.97,4.66-8.06,12.38-13.88,21.41-16.15-19.86,14.93-23.86,43.15-8.93,63.01.03.03.05.07.08.1"></path>
      <path class="st4" d="M240.19,318.74l2.25-45-2.25-35.43c-1.37,1.91-3.19,3.44-5.31,4.46v26.45l1.81,44.7,3.5,4.82Z"></path>
      <path class="st4" d="M241.09,235.49l-.9.85c-2.06,2.93-6.11,3.64-9.05,1.58-2.46-1.73-3.41-4.92-2.3-7.72.63,3.33,3.84,5.52,7.17,4.89,1.75-.33,3.28-1.41,4.17-2.95"></path>
    </g>
  </g>
</svg><style>@media (prefers-color-scheme: light) { :root { filter: none; } }
@media (prefers-color-scheme: dark) { :root { filter: none; } }
</style></svg>